<svg xmlns="http://www.w3.org/2000/svg" xmlns:xlink="http://www.w3.org/1999/xlink" width="204" zoomAndPan="magnify" viewBox="0 0 153 153.000002" height="204" preserveAspectRatio="xMidYMid meet" version="1.0"><defs><clipPath id="f510f8bc8c"><path d="M 16.40625 42 L 133 42 L 133 132 L 16.40625 132 Z M 16.40625 42 " clip-rule="nonzero"/></clipPath><clipPath id="ab7459149d"><path d="M 16.40625 15.199219 L 100 15.199219 L 100 73 L 16.40625 73 Z M 16.40625 15.199219 " clip-rule="nonzero"/></clipPath><clipPath id="4e066a7636"><path d="M 16.40625 74 L 19 74 L 19 77 L 16.40625 77 Z M 16.40625 74 " clip-rule="nonzero"/></clipPath></defs><path fill="#f0c020" d="M 129.488281 59.34375 C 130.613281 64.121094 131.171875 68.964844 131.160156 73.875 C 131.152344 78.78125 130.574219 83.625 129.429688 88.394531 C 129.273438 89.070312 129.058594 89.726562 128.789062 90.363281 C 128.523438 91 128.203125 91.613281 127.832031 92.195312 C 127.460938 92.78125 127.046875 93.328125 126.582031 93.84375 C 126.121094 94.359375 125.617188 94.828125 125.074219 95.257812 C 124.535156 95.6875 123.960938 96.070312 123.355469 96.402344 C 122.746094 96.734375 122.117188 97.015625 121.464844 97.242188 C 120.8125 97.46875 120.144531 97.640625 119.464844 97.757812 C 118.78125 97.871094 118.09375 97.929688 117.402344 97.929688 L 98.542969 97.929688 L 98.542969 116.808594 C 98.542969 122.171875 95.0625 127.421875 88.753906 128.910156 C 84.03125 130.019531 79.242188 130.578125 74.390625 130.578125 C 69.539062 130.578125 64.75 130.023438 60.027344 128.910156 C 53.734375 127.429688 50.222656 122.199219 50.222656 116.808594 L 50.222656 86.109375 C 50.222656 85.296875 50.300781 84.496094 50.460938 83.699219 C 50.617188 82.902344 50.851562 82.128906 51.164062 81.378906 C 51.472656 80.628906 51.851562 79.914062 52.304688 79.242188 C 52.753906 78.566406 53.265625 77.941406 53.839844 77.367188 C 54.414062 76.792969 55.039062 76.28125 55.714844 75.828125 C 56.386719 75.378906 57.101562 74.996094 57.847656 74.683594 C 58.597656 74.375 59.371094 74.140625 60.167969 73.980469 C 60.960938 73.824219 61.765625 73.742188 62.578125 73.742188 L 86.1875 73.742188 C 87 73.742188 87.804688 73.664062 88.597656 73.507812 C 89.394531 73.347656 90.167969 73.113281 90.917969 72.804688 C 91.667969 72.492188 92.378906 72.109375 93.054688 71.660156 C 93.726562 71.210938 94.351562 70.695312 94.925781 70.121094 C 95.5 69.546875 96.011719 68.921875 96.460938 68.25 C 96.914062 67.574219 97.292969 66.859375 97.601562 66.109375 C 97.914062 65.359375 98.148438 64.585938 98.308594 63.792969 C 98.464844 62.996094 98.542969 62.191406 98.542969 61.378906 L 98.542969 49.5625 L 117.40625 49.5625 C 118.105469 49.5625 118.804688 49.621094 119.496094 49.738281 C 120.1875 49.859375 120.863281 50.035156 121.527344 50.269531 C 122.1875 50.503906 122.828125 50.792969 123.441406 51.132812 C 124.050781 51.476562 124.632812 51.871094 125.179688 52.3125 C 125.722656 52.753906 126.226562 53.238281 126.691406 53.765625 C 127.15625 54.292969 127.570312 54.859375 127.9375 55.457031 C 128.304688 56.054688 128.617188 56.683594 128.878906 57.335938 C 129.140625 57.988281 129.34375 58.65625 129.488281 59.34375 Z M 129.488281 59.34375 " fill-opacity="1" fill-rule="nonzero"/><path fill="#72c1e8" d="M 98.542969 30.6875 L 98.542969 61.378906 C 98.542969 62.191406 98.464844 62.996094 98.308594 63.792969 C 98.148438 64.589844 97.914062 65.359375 97.605469 66.113281 C 97.292969 66.863281 96.914062 67.574219 96.460938 68.25 C 96.011719 68.925781 95.5 69.550781 94.925781 70.125 C 94.351562 70.699219 93.726562 71.210938 93.054688 71.660156 C 92.378906 72.113281 91.667969 72.492188 90.917969 72.804688 C 90.167969 73.117188 89.394531 73.351562 88.597656 73.507812 C 87.804688 73.667969 87 73.746094 86.1875 73.746094 L 62.578125 73.746094 C 61.765625 73.746094 60.960938 73.824219 60.167969 73.984375 C 59.371094 74.140625 58.597656 74.375 57.847656 74.6875 C 57.101562 74.996094 56.386719 75.378906 55.714844 75.828125 C 55.039062 76.28125 54.414062 76.792969 53.839844 77.367188 C 53.269531 77.941406 52.753906 78.566406 52.304688 79.242188 C 51.855469 79.917969 51.472656 80.628906 51.164062 81.378906 C 50.851562 82.128906 50.617188 82.902344 50.460938 83.699219 C 50.300781 84.496094 50.222656 85.300781 50.222656 86.109375 L 50.222656 97.925781 L 31.359375 97.925781 C 30.667969 97.925781 29.984375 97.871094 29.300781 97.753906 C 28.621094 97.640625 27.953125 97.46875 27.300781 97.242188 C 26.648438 97.015625 26.019531 96.734375 25.414062 96.402344 C 24.808594 96.070312 24.234375 95.6875 23.691406 95.257812 C 23.148438 94.832031 22.648438 94.359375 22.183594 93.84375 C 21.722656 93.332031 21.304688 92.78125 20.933594 92.199219 C 20.5625 91.617188 20.242188 91.003906 19.976562 90.367188 C 19.707031 89.730469 19.492188 89.074219 19.335938 88.402344 C 18.179688 83.585938 17.601562 78.699219 17.601562 73.746094 C 17.601562 68.792969 18.179688 63.90625 19.335938 59.089844 C 19.492188 58.414062 19.707031 57.761719 19.976562 57.121094 C 20.242188 56.484375 20.5625 55.875 20.933594 55.289062 C 21.304688 54.707031 21.722656 54.160156 22.183594 53.644531 C 22.648438 53.132812 23.148438 52.660156 23.691406 52.230469 C 24.234375 51.800781 24.808594 51.421875 25.414062 51.085938 C 26.019531 50.753906 26.648438 50.472656 27.300781 50.246094 C 27.953125 50.019531 28.621094 49.847656 29.300781 49.734375 C 29.984375 49.621094 30.667969 49.5625 31.359375 49.5625 L 50.222656 49.5625 L 50.222656 30.683594 C 50.222656 29.980469 50.28125 29.285156 50.398438 28.59375 C 50.519531 27.898438 50.695312 27.222656 50.929688 26.558594 C 51.160156 25.894531 51.449219 25.257812 51.792969 24.644531 C 52.136719 24.03125 52.527344 23.453125 52.96875 22.90625 C 53.410156 22.359375 53.894531 21.855469 54.421875 21.390625 C 54.949219 20.925781 55.515625 20.511719 56.113281 20.144531 C 56.710938 19.777344 57.335938 19.460938 57.988281 19.199219 C 58.640625 18.9375 59.308594 18.734375 59.996094 18.589844 C 64.71875 17.476562 69.503906 16.917969 74.351562 16.917969 C 79.203125 16.914062 83.988281 17.46875 88.710938 18.578125 C 94.976562 20.046875 98.542969 25.226562 98.542969 30.6875 Z M 98.542969 30.6875 " fill-opacity="1" fill-rule="nonzero"/><path fill="#ffffff" d="M 67.921875 32.792969 C 68.117188 33.269531 68.214844 33.761719 68.214844 34.273438 C 68.214844 34.785156 68.117188 35.28125 67.921875 35.753906 C 67.726562 36.226562 67.445312 36.644531 67.085938 37.007812 C 66.722656 37.371094 66.304688 37.648438 65.832031 37.847656 C 65.359375 38.042969 64.867188 38.140625 64.351562 38.140625 C 63.839844 38.140625 63.347656 38.042969 62.875 37.847656 C 62.402344 37.652344 61.984375 37.371094 61.621094 37.007812 C 61.261719 36.648438 60.980469 36.230469 60.785156 35.753906 C 60.589844 35.28125 60.492188 34.789062 60.492188 34.277344 C 60.488281 33.761719 60.589844 33.269531 60.785156 32.796875 C 60.980469 32.324219 61.257812 31.90625 61.621094 31.542969 C 61.984375 31.179688 62.402344 30.898438 62.875 30.703125 C 63.347656 30.507812 63.839844 30.410156 64.351562 30.410156 C 64.863281 30.410156 65.355469 30.507812 65.828125 30.703125 C 66.304688 30.898438 66.71875 31.179688 67.082031 31.539062 C 67.445312 31.902344 67.722656 32.320312 67.921875 32.792969 Z M 67.921875 32.792969 " fill-opacity="1" fill-rule="nonzero"/><path fill="#ffffff" d="M 88.289062 113.203125 C 88.289062 113.714844 88.1875 114.207031 87.992188 114.683594 C 87.796875 115.15625 87.519531 115.574219 87.15625 115.9375 C 86.792969 116.296875 86.375 116.578125 85.902344 116.773438 C 85.429688 116.96875 84.9375 117.066406 84.425781 117.066406 C 83.914062 117.066406 83.421875 116.96875 82.949219 116.773438 C 82.476562 116.578125 82.058594 116.296875 81.695312 115.9375 C 81.332031 115.574219 81.054688 115.15625 80.859375 114.683594 C 80.664062 114.207031 80.566406 113.714844 80.566406 113.203125 C 80.566406 112.691406 80.664062 112.199219 80.859375 111.722656 C 81.054688 111.25 81.332031 110.832031 81.695312 110.46875 C 82.058594 110.109375 82.476562 109.828125 82.949219 109.632812 C 83.421875 109.4375 83.914062 109.339844 84.425781 109.339844 C 84.9375 109.339844 85.429688 109.4375 85.902344 109.632812 C 86.375 109.828125 86.792969 110.109375 87.15625 110.46875 C 87.519531 110.832031 87.796875 111.25 87.992188 111.722656 C 88.1875 112.199219 88.289062 112.691406 88.289062 113.203125 Z M 88.289062 113.203125 " fill-opacity="1" fill-rule="nonzero"/><path fill="#f9e5af" d="M 93.667969 118.214844 C 93.515625 118.214844 93.367188 118.1875 93.226562 118.128906 C 93.085938 118.070312 92.960938 117.988281 92.855469 117.878906 C 92.746094 117.773438 92.664062 117.648438 92.605469 117.507812 C 92.546875 117.367188 92.519531 117.21875 92.519531 117.066406 L 92.519531 114.835938 C 92.519531 114.683594 92.546875 114.539062 92.605469 114.398438 C 92.664062 114.257812 92.746094 114.132812 92.855469 114.023438 C 92.960938 113.917969 93.085938 113.835938 93.226562 113.777344 C 93.367188 113.71875 93.515625 113.6875 93.667969 113.6875 C 93.820312 113.6875 93.964844 113.71875 94.105469 113.777344 C 94.246094 113.835938 94.371094 113.917969 94.476562 114.023438 C 94.585938 114.132812 94.667969 114.257812 94.726562 114.398438 C 94.785156 114.539062 94.8125 114.683594 94.8125 114.835938 L 94.8125 117.066406 C 94.8125 117.21875 94.785156 117.367188 94.726562 117.507812 C 94.667969 117.648438 94.585938 117.773438 94.476562 117.878906 C 94.371094 117.988281 94.246094 118.070312 94.105469 118.128906 C 93.964844 118.1875 93.820312 118.214844 93.667969 118.214844 Z M 93.667969 111.390625 C 93.515625 111.390625 93.367188 111.363281 93.226562 111.304688 C 93.085938 111.246094 92.960938 111.160156 92.855469 111.054688 C 92.746094 110.945312 92.664062 110.820312 92.605469 110.679688 C 92.546875 110.539062 92.519531 110.394531 92.519531 110.242188 L 92.519531 91.496094 C 92.519531 91.34375 92.546875 91.195312 92.605469 91.054688 C 92.664062 90.914062 92.746094 90.789062 92.855469 90.683594 C 92.960938 90.574219 93.085938 90.492188 93.226562 90.433594 C 93.367188 90.375 93.515625 90.347656 93.667969 90.347656 L 117.402344 90.347656 C 117.941406 90.347656 118.464844 90.261719 118.976562 90.085938 C 119.484375 89.910156 119.949219 89.652344 120.375 89.320312 C 120.796875 88.984375 121.152344 88.589844 121.441406 88.132812 C 121.726562 87.675781 121.933594 87.1875 122.054688 86.660156 C 123.070312 82.414062 123.578125 78.105469 123.578125 73.738281 C 123.578125 69.371094 123.070312 65.0625 122.054688 60.816406 C 121.933594 60.292969 121.726562 59.804688 121.4375 59.347656 C 121.148438 58.894531 120.796875 58.5 120.371094 58.167969 C 119.949219 57.832031 119.484375 57.578125 118.976562 57.402344 C 118.46875 57.226562 117.945312 57.140625 117.40625 57.144531 C 117.253906 57.144531 117.109375 57.117188 116.96875 57.058594 C 116.828125 57 116.703125 56.917969 116.59375 56.808594 C 116.488281 56.699219 116.402344 56.578125 116.347656 56.4375 C 116.289062 56.296875 116.257812 56.148438 116.257812 55.996094 C 116.257812 55.84375 116.289062 55.699219 116.347656 55.554688 C 116.402344 55.414062 116.488281 55.292969 116.59375 55.183594 C 116.703125 55.074219 116.828125 54.992188 116.96875 54.933594 C 117.109375 54.875 117.253906 54.847656 117.40625 54.847656 C 120.492188 54.847656 123.464844 56.792969 124.347656 60.53125 C 125.375 64.914062 125.882812 69.359375 125.875 73.863281 C 125.863281 78.363281 125.335938 82.804688 124.292969 87.183594 C 124.113281 87.964844 123.808594 88.691406 123.382812 89.363281 C 122.957031 90.039062 122.429688 90.625 121.804688 91.121094 C 121.179688 91.617188 120.488281 91.996094 119.734375 92.257812 C 118.980469 92.515625 118.203125 92.644531 117.40625 92.644531 L 94.816406 92.644531 L 94.816406 110.242188 C 94.816406 110.394531 94.789062 110.539062 94.730469 110.679688 C 94.671875 110.824219 94.585938 110.945312 94.480469 111.054688 C 94.371094 111.164062 94.246094 111.246094 94.105469 111.304688 C 93.964844 111.363281 93.820312 111.390625 93.667969 111.390625 Z M 93.667969 111.390625 " fill-opacity="1" fill-rule="nonzero"/><path fill="#c5e5ff" d="M 43.792969 92.644531 C 43.640625 92.644531 43.496094 92.613281 43.355469 92.558594 C 43.214844 92.5 43.089844 92.414062 42.984375 92.308594 C 42.875 92.199219 42.792969 92.074219 42.734375 91.933594 C 42.675781 91.792969 42.644531 91.648438 42.644531 91.496094 L 42.644531 89.4375 C 42.644531 89.285156 42.675781 89.136719 42.734375 88.996094 C 42.792969 88.855469 42.875 88.730469 42.984375 88.625 C 43.089844 88.515625 43.214844 88.433594 43.355469 88.375 C 43.496094 88.316406 43.640625 88.289062 43.792969 88.289062 C 43.945312 88.289062 44.09375 88.316406 44.234375 88.375 C 44.375 88.433594 44.5 88.515625 44.605469 88.625 C 44.714844 88.730469 44.796875 88.855469 44.855469 88.996094 C 44.914062 89.136719 44.941406 89.285156 44.941406 89.4375 L 44.941406 91.496094 C 44.941406 91.648438 44.914062 91.792969 44.855469 91.933594 C 44.796875 92.074219 44.714844 92.199219 44.605469 92.308594 C 44.5 92.414062 44.375 92.5 44.234375 92.558594 C 44.09375 92.613281 43.945312 92.644531 43.792969 92.644531 Z M 43.761719 85.988281 C 43.609375 85.976562 43.464844 85.9375 43.328125 85.871094 C 43.191406 85.804688 43.074219 85.710938 42.972656 85.597656 C 42.871094 85.484375 42.796875 85.355469 42.75 85.210938 C 42.699219 85.066406 42.679688 84.917969 42.691406 84.765625 C 42.734375 84.140625 42.808594 83.523438 42.910156 82.90625 C 43.011719 82.289062 43.140625 81.679688 43.300781 81.074219 C 43.457031 80.46875 43.644531 79.875 43.859375 79.289062 C 44.074219 78.699219 44.316406 78.125 44.582031 77.5625 C 44.851562 76.996094 45.148438 76.445312 45.464844 75.910156 C 45.785156 75.375 46.128906 74.851562 46.5 74.347656 C 46.867188 73.84375 47.257812 73.359375 47.675781 72.890625 C 48.089844 72.421875 48.523438 71.976562 48.980469 71.550781 C 49.4375 71.125 49.910156 70.71875 50.40625 70.335938 C 50.898438 69.953125 51.410156 69.597656 51.9375 69.261719 C 52.464844 68.929688 53.007812 68.621094 53.5625 68.335938 C 54.121094 68.054688 54.6875 67.796875 55.269531 67.566406 C 55.847656 67.335938 56.4375 67.132812 57.039062 66.960938 C 57.636719 66.785156 58.242188 66.636719 58.855469 66.519531 C 59.46875 66.402344 60.085938 66.316406 60.707031 66.253906 C 61.332031 66.195312 61.953125 66.164062 62.578125 66.164062 L 86.1875 66.164062 C 86.503906 66.164062 86.8125 66.132812 87.121094 66.070312 C 87.429688 66.007812 87.726562 65.917969 88.015625 65.796875 C 88.308594 65.675781 88.582031 65.53125 88.84375 65.355469 C 89.105469 65.179688 89.34375 64.980469 89.566406 64.761719 C 89.789062 64.539062 89.988281 64.296875 90.160156 64.035156 C 90.335938 63.773438 90.484375 63.5 90.605469 63.207031 C 90.722656 62.917969 90.816406 62.621094 90.875 62.3125 C 90.9375 62.003906 90.96875 61.691406 90.96875 61.378906 L 90.96875 30.6875 C 90.972656 30.148438 90.882812 29.621094 90.707031 29.113281 C 90.53125 28.601562 90.277344 28.136719 89.945312 27.714844 C 89.609375 27.289062 89.214844 26.933594 88.761719 26.644531 C 88.304688 26.359375 87.816406 26.152344 87.289062 26.03125 L 86.980469 25.957031 C 86.835938 25.921875 86.699219 25.859375 86.578125 25.769531 C 86.457031 25.679688 86.355469 25.570312 86.277344 25.441406 C 86.199219 25.3125 86.148438 25.171875 86.121094 25.023438 C 86.097656 24.875 86.105469 24.726562 86.136719 24.578125 C 86.171875 24.433594 86.234375 24.296875 86.320312 24.171875 C 86.410156 24.050781 86.515625 23.949219 86.644531 23.867188 C 86.773438 23.789062 86.910156 23.734375 87.0625 23.710938 C 87.210938 23.683594 87.359375 23.6875 87.503906 23.71875 L 87.8125 23.792969 C 88.589844 23.972656 89.316406 24.277344 89.992188 24.703125 C 90.664062 25.128906 91.25 25.65625 91.746094 26.28125 C 92.238281 26.910156 92.617188 27.601562 92.878906 28.355469 C 93.140625 29.109375 93.269531 29.886719 93.265625 30.683594 L 93.265625 61.378906 C 93.265625 61.84375 93.21875 62.300781 93.128906 62.757812 C 93.035156 63.214844 92.902344 63.65625 92.722656 64.085938 C 92.546875 64.515625 92.328125 64.921875 92.070312 65.308594 C 91.8125 65.695312 91.519531 66.054688 91.191406 66.382812 C 90.863281 66.710938 90.503906 67.003906 90.117188 67.261719 C 89.730469 67.523438 89.324219 67.738281 88.894531 67.917969 C 88.464844 68.097656 88.023438 68.230469 87.570312 68.320312 C 87.113281 68.414062 86.652344 68.457031 86.1875 68.460938 L 62.578125 68.460938 C 61.46875 68.460938 60.371094 68.566406 59.285156 68.777344 C 58.199219 68.984375 57.140625 69.292969 56.109375 69.699219 C 55.082031 70.109375 54.097656 70.609375 53.164062 71.203125 C 52.226562 71.792969 51.355469 72.46875 50.546875 73.226562 C 49.738281 73.980469 49.003906 74.808594 48.351562 75.703125 C 47.699219 76.59375 47.132812 77.542969 46.65625 78.542969 C 46.179688 79.542969 45.800781 80.578125 45.519531 81.652344 C 45.238281 82.722656 45.058594 83.8125 44.980469 84.917969 C 44.972656 85.070312 44.933594 85.214844 44.867188 85.351562 C 44.796875 85.488281 44.707031 85.605469 44.59375 85.707031 C 44.476562 85.804688 44.347656 85.882812 44.203125 85.929688 C 44.058594 85.980469 43.910156 86 43.761719 85.988281 Z M 43.761719 85.988281 " fill-opacity="1" fill-rule="nonzero"/><g clip-path="url(#f510f8bc8c)"><path fill="#000000" d="M 130.546875 58.820312 C 130.371094 58.085938 130.136719 57.371094 129.84375 56.671875 C 129.550781 55.976562 129.199219 55.3125 128.796875 54.671875 C 128.390625 54.035156 127.933594 53.4375 127.429688 52.875 C 126.921875 52.316406 126.375 51.800781 125.78125 51.332031 C 125.191406 50.863281 124.5625 50.445312 123.902344 50.082031 C 123.238281 49.71875 122.550781 49.414062 121.839844 49.164062 C 121.125 48.914062 120.398438 48.726562 119.652344 48.601562 C 118.910156 48.476562 118.160156 48.414062 117.40625 48.410156 L 99.6875 48.410156 L 99.6875 43.09375 C 99.667969 42.792969 99.550781 42.535156 99.332031 42.328125 C 99.109375 42.121094 98.847656 42.015625 98.546875 42.015625 C 98.242188 42.011719 97.980469 42.117188 97.757812 42.320312 C 97.539062 42.527344 97.417969 42.785156 97.398438 43.085938 C 97.394531 43.089844 97.390625 43.089844 97.390625 43.09375 L 97.390625 61.378906 C 97.390625 62.117188 97.316406 62.84375 97.167969 63.566406 C 97.023438 64.285156 96.8125 64.988281 96.527344 65.667969 C 96.246094 66.347656 95.898438 66.992188 95.492188 67.601562 C 95.082031 68.214844 94.617188 68.78125 94.097656 69.300781 C 93.578125 69.820312 93.011719 70.285156 92.402344 70.695312 C 91.789062 71.105469 91.144531 71.449219 90.46875 71.734375 C 89.789062 72.015625 89.089844 72.230469 88.367188 72.375 C 87.648438 72.519531 86.917969 72.59375 86.183594 72.597656 L 62.578125 72.597656 C 61.691406 72.597656 60.8125 72.683594 59.941406 72.855469 C 59.070312 73.027344 58.226562 73.285156 57.40625 73.625 C 56.589844 73.964844 55.808594 74.378906 55.074219 74.871094 C 54.335938 75.363281 53.652344 75.925781 53.027344 76.554688 C 52.398438 77.179688 51.839844 77.863281 51.347656 78.601562 C 50.855469 79.339844 50.4375 80.117188 50.097656 80.9375 C 49.757812 81.757812 49.503906 82.605469 49.332031 83.476562 C 49.160156 84.347656 49.074219 85.226562 49.074219 86.113281 L 49.074219 96.777344 L 31.363281 96.777344 C 30.734375 96.78125 30.113281 96.730469 29.492188 96.628906 C 28.875 96.527344 28.269531 96.371094 27.675781 96.167969 C 27.082031 95.960938 26.511719 95.710938 25.960938 95.40625 C 25.410156 95.105469 24.886719 94.761719 24.394531 94.371094 C 23.90625 93.980469 23.449219 93.554688 23.027344 93.085938 C 22.609375 92.621094 22.230469 92.121094 21.894531 91.589844 C 21.558594 91.058594 21.269531 90.503906 21.027344 89.925781 C 20.785156 89.347656 20.59375 88.75 20.453125 88.140625 C 19.808594 85.449219 19.347656 82.726562 19.066406 79.972656 C 19.050781 79.820312 19.007812 79.679688 18.933594 79.542969 C 18.863281 79.410156 18.765625 79.292969 18.648438 79.199219 C 18.53125 79.101562 18.398438 79.03125 18.253906 78.988281 C 18.105469 78.945312 17.957031 78.929688 17.808594 78.945312 C 17.65625 78.960938 17.511719 79.003906 17.378906 79.078125 C 17.242188 79.152344 17.128906 79.246094 17.03125 79.363281 C 16.9375 79.480469 16.867188 79.613281 16.824219 79.761719 C 16.777344 79.90625 16.765625 80.054688 16.78125 80.207031 C 17.070312 83.058594 17.550781 85.878906 18.21875 88.667969 C 18.390625 89.402344 18.625 90.121094 18.917969 90.816406 C 19.210938 91.511719 19.5625 92.179688 19.964844 92.816406 C 20.371094 93.453125 20.828125 94.054688 21.332031 94.617188 C 21.839844 95.175781 22.386719 95.691406 22.980469 96.160156 C 23.574219 96.628906 24.199219 97.046875 24.863281 97.410156 C 25.523438 97.773438 26.210938 98.078125 26.925781 98.328125 C 27.640625 98.574219 28.367188 98.761719 29.113281 98.886719 C 29.855469 99.015625 30.605469 99.078125 31.363281 99.078125 L 49.074219 99.078125 L 49.074219 116.804688 C 49.074219 117.574219 49.140625 118.335938 49.269531 119.089844 C 49.398438 119.847656 49.589844 120.585938 49.847656 121.308594 C 50.101562 122.03125 50.414062 122.730469 50.789062 123.398438 C 51.164062 124.070312 51.589844 124.703125 52.070312 125.300781 C 52.554688 125.894531 53.082031 126.449219 53.65625 126.957031 C 54.234375 127.460938 54.847656 127.917969 55.5 128.320312 C 56.152344 128.722656 56.835938 129.066406 57.546875 129.351562 C 58.257812 129.636719 58.988281 129.859375 59.738281 130.023438 C 61.882812 130.367188 72.886719 133.683594 89.117188 130.003906 C 89.859375 129.835938 90.585938 129.609375 91.292969 129.320312 C 92 129.03125 92.675781 128.6875 93.324219 128.285156 C 93.96875 127.878906 94.578125 127.425781 95.148438 126.917969 C 95.722656 126.410156 96.246094 125.859375 96.722656 125.265625 C 97.199219 124.667969 97.625 124.039062 97.992188 123.371094 C 98.363281 122.703125 98.675781 122.007812 98.929688 121.289062 C 99.183594 120.570312 99.371094 119.832031 99.5 119.078125 C 99.628906 118.328125 99.695312 117.570312 99.695312 116.804688 L 99.695312 99.078125 L 105.207031 99.078125 C 105.359375 99.078125 105.507812 99.046875 105.648438 98.988281 C 105.789062 98.929688 105.914062 98.847656 106.019531 98.738281 C 106.128906 98.632812 106.210938 98.507812 106.269531 98.367188 C 106.328125 98.226562 106.355469 98.078125 106.355469 97.925781 C 106.355469 97.773438 106.328125 97.628906 106.269531 97.488281 C 106.210938 97.347656 106.128906 97.222656 106.019531 97.113281 C 105.914062 97.007812 105.789062 96.925781 105.648438 96.867188 C 105.507812 96.808594 105.359375 96.777344 105.207031 96.777344 L 74.382812 96.777344 C 74.230469 96.777344 74.082031 96.808594 73.941406 96.867188 C 73.800781 96.925781 73.679688 97.007812 73.570312 97.113281 C 73.464844 97.222656 73.378906 97.347656 73.320312 97.488281 C 73.265625 97.628906 73.234375 97.773438 73.234375 97.925781 C 73.234375 98.078125 73.265625 98.226562 73.320312 98.367188 C 73.378906 98.507812 73.464844 98.632812 73.570312 98.738281 C 73.679688 98.847656 73.800781 98.929688 73.941406 98.988281 C 74.082031 99.046875 74.230469 99.078125 74.382812 99.078125 L 97.398438 99.078125 L 97.398438 116.804688 C 97.398438 117.445312 97.347656 118.082031 97.242188 118.710938 C 97.136719 119.34375 96.976562 119.960938 96.761719 120.5625 C 96.550781 121.167969 96.289062 121.75 95.976562 122.304688 C 95.664062 122.863281 95.304688 123.390625 94.902344 123.890625 C 94.5 124.386719 94.058594 124.84375 93.574219 125.265625 C 93.09375 125.6875 92.582031 126.0625 92.035156 126.394531 C 91.488281 126.726562 90.917969 127.011719 90.320312 127.246094 C 89.726562 127.476562 89.117188 127.660156 88.488281 127.789062 C 83.851562 128.875 79.152344 129.421875 74.390625 129.421875 C 69.628906 129.421875 64.925781 128.878906 60.289062 127.792969 C 54.480469 126.414062 51.371094 121.699219 51.371094 116.804688 L 51.371094 86.109375 C 51.371094 85.375 51.445312 84.644531 51.589844 83.925781 C 51.734375 83.203125 51.949219 82.503906 52.230469 81.824219 C 52.515625 81.144531 52.859375 80.5 53.269531 79.886719 C 53.679688 79.277344 54.140625 78.710938 54.664062 78.191406 C 55.183594 77.667969 55.746094 77.203125 56.359375 76.796875 C 56.96875 76.386719 57.613281 76.039062 58.292969 75.757812 C 58.972656 75.472656 59.671875 75.261719 60.394531 75.113281 C 61.113281 74.96875 61.839844 74.894531 62.578125 74.894531 L 86.1875 74.894531 C 87.074219 74.894531 87.953125 74.804688 88.824219 74.632812 C 89.691406 74.460938 90.535156 74.203125 91.355469 73.863281 C 92.175781 73.523438 92.953125 73.105469 93.691406 72.613281 C 94.425781 72.121094 95.109375 71.5625 95.734375 70.933594 C 96.363281 70.304688 96.921875 69.625 97.414062 68.886719 C 97.90625 68.148438 98.324219 67.371094 98.664062 66.550781 C 99.003906 65.730469 99.257812 64.886719 99.433594 64.015625 C 99.605469 63.144531 99.691406 62.265625 99.691406 61.378906 L 99.691406 50.710938 L 117.40625 50.710938 C 118.035156 50.707031 118.664062 50.757812 119.289062 50.863281 C 119.910156 50.96875 120.519531 51.125 121.117188 51.332031 C 121.714844 51.539062 122.289062 51.796875 122.839844 52.101562 C 123.394531 52.410156 123.917969 52.757812 124.410156 53.152344 C 124.902344 53.546875 125.359375 53.980469 125.777344 54.453125 C 126.199219 54.925781 126.574219 55.429688 126.910156 55.96875 C 127.242188 56.503906 127.53125 57.066406 127.769531 57.652344 C 128.007812 58.234375 128.195312 58.835938 128.332031 59.453125 C 128.347656 59.507812 128.359375 59.558594 128.371094 59.609375 C 130.703125 69.535156 130.398438 80.058594 128.308594 88.132812 C 128.167969 88.746094 127.976562 89.34375 127.734375 89.921875 C 127.492188 90.5 127.203125 91.058594 126.867188 91.585938 C 126.53125 92.117188 126.15625 92.617188 125.734375 93.085938 C 125.316406 93.550781 124.859375 93.980469 124.367188 94.371094 C 123.875 94.757812 123.355469 95.105469 122.804688 95.40625 C 122.253906 95.707031 121.683594 95.960938 121.089844 96.167969 C 120.496094 96.371094 119.890625 96.527344 119.269531 96.628906 C 118.652344 96.730469 118.027344 96.78125 117.402344 96.777344 L 114.390625 96.777344 C 114.238281 96.777344 114.089844 96.808594 113.949219 96.867188 C 113.808594 96.925781 113.683594 97.007812 113.578125 97.113281 C 113.46875 97.222656 113.386719 97.347656 113.328125 97.488281 C 113.269531 97.628906 113.242188 97.773438 113.242188 97.925781 C 113.242188 98.078125 113.269531 98.226562 113.328125 98.367188 C 113.386719 98.507812 113.46875 98.632812 113.578125 98.738281 C 113.683594 98.847656 113.808594 98.929688 113.949219 98.988281 C 114.089844 99.046875 114.238281 99.078125 114.390625 99.078125 L 117.402344 99.078125 C 118.15625 99.078125 118.90625 99.015625 119.652344 98.886719 C 120.398438 98.761719 121.125 98.574219 121.839844 98.328125 C 122.554688 98.078125 123.242188 97.773438 123.902344 97.40625 C 124.566406 97.042969 125.191406 96.628906 125.785156 96.15625 C 126.378906 95.6875 126.925781 95.171875 127.433594 94.609375 C 127.9375 94.050781 128.394531 93.449219 128.800781 92.8125 C 129.203125 92.171875 129.554688 91.503906 129.847656 90.808594 C 130.140625 90.109375 130.371094 89.394531 130.546875 88.660156 C 133.402344 76.617188 132.339844 68.59375 130.546875 58.820312 Z M 130.546875 58.820312 " fill-opacity="1" fill-rule="nonzero"/></g><path fill="#000000" d="M 110.949219 97.925781 C 110.949219 98.078125 110.917969 98.226562 110.859375 98.367188 C 110.800781 98.507812 110.71875 98.632812 110.609375 98.738281 C 110.503906 98.847656 110.378906 98.929688 110.238281 98.988281 C 110.097656 99.046875 109.953125 99.078125 109.800781 99.078125 C 109.648438 99.078125 109.5 99.046875 109.359375 98.988281 C 109.21875 98.929688 109.09375 98.847656 108.988281 98.738281 C 108.878906 98.632812 108.796875 98.507812 108.738281 98.367188 C 108.679688 98.226562 108.652344 98.078125 108.652344 97.925781 C 108.652344 97.773438 108.679688 97.628906 108.738281 97.488281 C 108.796875 97.347656 108.878906 97.222656 108.988281 97.113281 C 109.09375 97.007812 109.21875 96.925781 109.359375 96.867188 C 109.5 96.808594 109.648438 96.777344 109.800781 96.777344 C 109.953125 96.777344 110.097656 96.808594 110.238281 96.867188 C 110.378906 96.925781 110.503906 97.007812 110.609375 97.113281 C 110.71875 97.222656 110.800781 97.347656 110.859375 97.488281 C 110.917969 97.628906 110.949219 97.773438 110.949219 97.925781 Z M 110.949219 97.925781 " fill-opacity="1" fill-rule="nonzero"/><path fill="#000000" d="M 98.542969 37.351562 C 98.390625 37.351562 98.246094 37.378906 98.105469 37.4375 C 97.964844 37.496094 97.839844 37.578125 97.730469 37.683594 C 97.621094 37.792969 97.539062 37.917969 97.480469 38.058594 C 97.421875 38.199219 97.390625 38.34375 97.390625 38.496094 C 97.390625 38.648438 97.421875 38.796875 97.476562 38.9375 C 97.535156 39.078125 97.617188 39.203125 97.726562 39.308594 C 97.835938 39.417969 97.957031 39.5 98.097656 39.558594 C 98.238281 39.617188 98.386719 39.648438 98.539062 39.648438 C 98.691406 39.648438 98.835938 39.621094 98.976562 39.5625 C 99.117188 39.503906 99.242188 39.421875 99.351562 39.3125 C 99.457031 39.203125 99.542969 39.082031 99.601562 38.941406 C 99.660156 38.796875 99.6875 38.652344 99.6875 38.5 C 99.6875 38.347656 99.65625 38.203125 99.601562 38.0625 C 99.542969 37.921875 99.457031 37.796875 99.351562 37.691406 C 99.246094 37.582031 99.121094 37.5 98.980469 37.441406 C 98.84375 37.382812 98.695312 37.351562 98.542969 37.351562 Z M 98.542969 37.351562 " fill-opacity="1" fill-rule="nonzero"/><g clip-path="url(#ab7459149d)"><path fill="#000000" d="M 17.667969 72.058594 C 17.8125 72.058594 17.957031 72.03125 18.09375 71.976562 C 18.230469 71.925781 18.351562 71.847656 18.457031 71.746094 C 18.566406 71.644531 18.648438 71.527344 18.710938 71.390625 C 18.773438 71.257812 18.808594 71.117188 18.8125 70.972656 L 18.8125 70.960938 C 18.992188 67.039062 19.539062 63.171875 20.453125 59.355469 C 20.59375 58.742188 20.785156 58.144531 21.027344 57.566406 C 21.269531 56.988281 21.558594 56.429688 21.894531 55.902344 C 22.230469 55.371094 22.609375 54.871094 23.027344 54.402344 C 23.445312 53.9375 23.902344 53.507812 24.394531 53.117188 C 24.886719 52.730469 25.410156 52.382812 25.957031 52.082031 C 26.507812 51.78125 27.082031 51.527344 27.675781 51.320312 C 28.265625 51.117188 28.875 50.960938 29.492188 50.859375 C 30.113281 50.757812 30.734375 50.707031 31.363281 50.710938 L 74.382812 50.710938 C 74.535156 50.710938 74.679688 50.679688 74.820312 50.621094 C 74.960938 50.5625 75.085938 50.480469 75.195312 50.375 C 75.300781 50.265625 75.382812 50.140625 75.441406 50 C 75.5 49.859375 75.53125 49.714844 75.53125 49.5625 C 75.53125 49.410156 75.5 49.261719 75.441406 49.121094 C 75.382812 48.980469 75.300781 48.855469 75.195312 48.75 C 75.085938 48.640625 74.960938 48.558594 74.820312 48.5 C 74.679688 48.441406 74.535156 48.410156 74.382812 48.410156 L 51.371094 48.410156 L 51.371094 30.6875 C 51.367188 30.046875 51.417969 29.414062 51.527344 28.78125 C 51.632812 28.152344 51.789062 27.535156 52.003906 26.933594 C 52.214844 26.328125 52.476562 25.75 52.785156 25.191406 C 53.097656 24.632812 53.457031 24.105469 53.855469 23.609375 C 54.257812 23.113281 54.699219 22.652344 55.183594 22.234375 C 55.664062 21.8125 56.175781 21.4375 56.722656 21.101562 C 57.265625 20.769531 57.835938 20.488281 58.429688 20.253906 C 59.023438 20.019531 59.632812 19.835938 60.257812 19.707031 C 70.003906 17.410156 80.214844 17.640625 88.542969 19.714844 C 89.164062 19.847656 89.773438 20.03125 90.363281 20.265625 C 90.957031 20.503906 91.523438 20.789062 92.066406 21.121094 C 92.609375 21.453125 93.121094 21.832031 93.597656 22.25 C 94.078125 22.671875 94.515625 23.128906 94.917969 23.625 C 95.316406 24.121094 95.671875 24.648438 95.980469 25.203125 C 96.292969 25.761719 96.550781 26.339844 96.761719 26.941406 C 96.972656 27.542969 97.132812 28.15625 97.238281 28.785156 C 97.34375 29.414062 97.394531 30.046875 97.394531 30.6875 L 97.394531 33.902344 C 97.394531 34.054688 97.421875 34.203125 97.480469 34.34375 C 97.539062 34.484375 97.625 34.605469 97.730469 34.714844 C 97.839844 34.820312 97.964844 34.90625 98.105469 34.964844 C 98.246094 35.019531 98.390625 35.050781 98.542969 35.050781 C 98.695312 35.050781 98.84375 35.019531 98.984375 34.964844 C 99.125 34.90625 99.25 34.820312 99.355469 34.714844 C 99.464844 34.605469 99.546875 34.484375 99.605469 34.34375 C 99.664062 34.203125 99.695312 34.054688 99.695312 33.902344 L 99.691406 30.6875 C 99.691406 24.726562 95.785156 19.042969 88.972656 17.457031 C 84.164062 16.332031 79.289062 15.769531 74.351562 15.773438 C 69.414062 15.773438 64.539062 16.339844 59.730469 17.46875 C 58.984375 17.632812 58.253906 17.855469 57.542969 18.140625 C 56.832031 18.429688 56.148438 18.773438 55.496094 19.175781 C 54.84375 19.578125 54.230469 20.03125 53.65625 20.539062 C 53.082031 21.046875 52.554688 21.597656 52.070312 22.195312 C 51.589844 22.789062 51.164062 23.425781 50.789062 24.09375 C 50.417969 24.761719 50.101562 25.460938 49.847656 26.183594 C 49.589844 26.90625 49.398438 27.644531 49.269531 28.402344 C 49.140625 29.15625 49.074219 29.917969 49.074219 30.6875 L 49.074219 48.410156 L 31.363281 48.410156 C 25.472656 48.410156 19.773438 52.265625 18.148438 59.113281 C 17.242188 62.976562 16.699219 66.894531 16.519531 70.859375 C 16.511719 71.015625 16.535156 71.167969 16.589844 71.3125 C 16.644531 71.460938 16.726562 71.589844 16.835938 71.707031 C 16.945312 71.820312 17.070312 71.90625 17.214844 71.96875 C 17.359375 72.03125 17.507812 72.058594 17.667969 72.058594 Z M 17.667969 72.058594 " fill-opacity="1" fill-rule="nonzero"/></g><g clip-path="url(#4e066a7636)"><path fill="#000000" d="M 17.65625 76.65625 C 17.808594 76.652344 17.953125 76.617188 18.09375 76.554688 C 18.234375 76.492188 18.355469 76.40625 18.457031 76.296875 C 18.5625 76.183594 18.644531 76.058594 18.695312 75.914062 C 18.75 75.773438 18.777344 75.625 18.773438 75.472656 C 18.769531 75.320312 18.738281 75.175781 18.675781 75.035156 C 18.617188 74.894531 18.527344 74.773438 18.417969 74.667969 C 18.308594 74.5625 18.179688 74.484375 18.035156 74.429688 C 17.894531 74.375 17.746094 74.351562 17.59375 74.359375 C 17.441406 74.363281 17.296875 74.394531 17.15625 74.457031 C 17.015625 74.519531 16.894531 74.605469 16.789062 74.714844 C 16.683594 74.828125 16.605469 74.953125 16.550781 75.097656 C 16.496094 75.238281 16.472656 75.386719 16.476562 75.539062 C 16.480469 75.691406 16.511719 75.835938 16.574219 75.976562 C 16.636719 76.117188 16.722656 76.238281 16.835938 76.34375 C 16.945312 76.445312 17.074219 76.527344 17.214844 76.582031 C 17.359375 76.636719 17.503906 76.660156 17.65625 76.65625 Z M 17.65625 76.65625 " fill-opacity="1" fill-rule="nonzero"/></g><path fill="#000000" d="M 59.332031 34.289062 C 59.332031 34.617188 59.363281 34.945312 59.425781 35.265625 C 59.492188 35.589844 59.585938 35.902344 59.710938 36.207031 C 59.839844 36.511719 59.992188 36.800781 60.175781 37.074219 C 60.359375 37.347656 60.566406 37.601562 60.796875 37.832031 C 61.03125 38.066406 61.285156 38.273438 61.558594 38.457031 C 61.832031 38.640625 62.121094 38.792969 62.421875 38.921875 C 62.726562 39.046875 63.039062 39.140625 63.363281 39.207031 C 63.6875 39.269531 64.011719 39.300781 64.339844 39.300781 C 64.667969 39.300781 64.996094 39.269531 65.316406 39.207031 C 65.640625 39.140625 65.953125 39.046875 66.257812 38.921875 C 66.5625 38.792969 66.851562 38.640625 67.125 38.457031 C 67.398438 38.273438 67.648438 38.066406 67.882812 37.832031 C 68.117188 37.601562 68.324219 37.347656 68.503906 37.074219 C 68.6875 36.800781 68.84375 36.511719 68.96875 36.207031 C 69.09375 35.902344 69.1875 35.589844 69.253906 35.265625 C 69.316406 34.941406 69.347656 34.617188 69.347656 34.289062 C 69.347656 33.957031 69.316406 33.632812 69.253906 33.308594 C 69.1875 32.988281 69.09375 32.671875 68.96875 32.367188 C 68.84375 32.066406 68.6875 31.777344 68.503906 31.503906 C 68.320312 31.230469 68.113281 30.976562 67.882812 30.742188 C 67.648438 30.511719 67.394531 30.300781 67.121094 30.121094 C 66.847656 29.9375 66.558594 29.78125 66.257812 29.65625 C 65.953125 29.53125 65.640625 29.433594 65.316406 29.371094 C 64.996094 29.308594 64.667969 29.273438 64.339844 29.273438 C 64.011719 29.273438 63.683594 29.308594 63.363281 29.371094 C 63.039062 29.4375 62.726562 29.53125 62.421875 29.65625 C 62.121094 29.785156 61.832031 29.9375 61.558594 30.121094 C 61.285156 30.304688 61.03125 30.511719 60.800781 30.746094 C 60.566406 30.976562 60.359375 31.230469 60.175781 31.503906 C 59.996094 31.777344 59.839844 32.066406 59.714844 32.371094 C 59.589844 32.675781 59.492188 32.988281 59.429688 33.3125 C 59.363281 33.632812 59.332031 33.960938 59.332031 34.289062 Z M 67.054688 34.289062 C 67.054688 34.648438 66.984375 34.996094 66.847656 35.328125 C 66.710938 35.660156 66.511719 35.953125 66.257812 36.207031 C 66.003906 36.464844 65.710938 36.660156 65.378906 36.796875 C 65.046875 36.933594 64.699219 37.003906 64.339844 37.003906 C 63.980469 37.003906 63.632812 36.933594 63.300781 36.796875 C 62.96875 36.660156 62.675781 36.464844 62.421875 36.207031 C 62.167969 35.953125 61.96875 35.660156 61.832031 35.328125 C 61.695312 34.996094 61.625 34.648438 61.625 34.289062 C 61.625 33.929688 61.695312 33.582031 61.832031 33.25 C 61.972656 32.914062 62.167969 32.621094 62.421875 32.367188 C 62.675781 32.113281 62.96875 31.917969 63.300781 31.777344 C 63.632812 31.640625 63.980469 31.574219 64.339844 31.574219 C 64.699219 31.574219 65.046875 31.640625 65.378906 31.78125 C 65.710938 31.917969 66.003906 32.113281 66.257812 32.367188 C 66.511719 32.625 66.707031 32.917969 66.847656 33.25 C 66.984375 33.582031 67.054688 33.929688 67.054688 34.289062 Z M 67.054688 34.289062 " fill-opacity="1" fill-rule="nonzero"/><path fill="#000000" d="M 89.433594 113.203125 C 89.433594 112.875 89.402344 112.546875 89.339844 112.226562 C 89.273438 111.902344 89.179688 111.589844 89.054688 111.285156 C 88.929688 110.980469 88.773438 110.691406 88.589844 110.417969 C 88.410156 110.144531 88.199219 109.890625 87.96875 109.660156 C 87.734375 109.425781 87.484375 109.21875 87.210938 109.035156 C 86.9375 108.851562 86.648438 108.699219 86.34375 108.570312 C 86.039062 108.445312 85.726562 108.351562 85.402344 108.285156 C 85.082031 108.222656 84.753906 108.191406 84.425781 108.191406 C 84.097656 108.191406 83.773438 108.222656 83.449219 108.285156 C 83.125 108.351562 82.8125 108.445312 82.507812 108.570312 C 82.207031 108.695312 81.917969 108.851562 81.644531 109.035156 C 81.371094 109.21875 81.117188 109.425781 80.882812 109.65625 C 80.652344 109.890625 80.445312 110.144531 80.261719 110.417969 C 80.078125 110.691406 79.925781 110.980469 79.796875 111.285156 C 79.671875 111.589844 79.578125 111.902344 79.511719 112.226562 C 79.449219 112.546875 79.417969 112.875 79.417969 113.203125 C 79.417969 113.53125 79.449219 113.859375 79.511719 114.179688 C 79.578125 114.503906 79.671875 114.816406 79.796875 115.121094 C 79.925781 115.425781 80.078125 115.714844 80.261719 115.988281 C 80.445312 116.261719 80.652344 116.515625 80.882812 116.75 C 81.117188 116.980469 81.371094 117.1875 81.644531 117.371094 C 81.917969 117.554688 82.203125 117.710938 82.507812 117.835938 C 82.8125 117.960938 83.125 118.054688 83.449219 118.121094 C 83.769531 118.183594 84.097656 118.214844 84.425781 118.214844 C 84.753906 118.214844 85.082031 118.183594 85.402344 118.121094 C 85.726562 118.054688 86.039062 117.960938 86.339844 117.832031 C 86.644531 117.707031 86.933594 117.554688 87.207031 117.371094 C 87.480469 117.1875 87.734375 116.980469 87.964844 116.746094 C 88.199219 116.515625 88.40625 116.261719 88.589844 115.988281 C 88.773438 115.714844 88.925781 115.425781 89.050781 115.121094 C 89.179688 114.816406 89.273438 114.503906 89.335938 114.179688 C 89.402344 113.859375 89.433594 113.53125 89.433594 113.203125 Z M 81.710938 113.203125 C 81.710938 112.84375 81.78125 112.496094 81.917969 112.164062 C 82.054688 111.832031 82.253906 111.539062 82.507812 111.28125 C 82.761719 111.027344 83.054688 110.832031 83.386719 110.695312 C 83.71875 110.554688 84.066406 110.488281 84.425781 110.488281 C 84.785156 110.488281 85.132812 110.554688 85.464844 110.695312 C 85.796875 110.832031 86.089844 111.027344 86.34375 111.28125 C 86.597656 111.539062 86.796875 111.832031 86.933594 112.164062 C 87.070312 112.496094 87.140625 112.84375 87.140625 113.203125 C 87.140625 113.5625 87.070312 113.910156 86.933594 114.242188 C 86.796875 114.574219 86.597656 114.867188 86.34375 115.125 C 86.089844 115.378906 85.796875 115.574219 85.464844 115.710938 C 85.132812 115.851562 84.785156 115.917969 84.425781 115.917969 C 84.066406 115.917969 83.71875 115.847656 83.386719 115.710938 C 83.054688 115.574219 82.761719 115.378906 82.507812 115.121094 C 82.253906 114.867188 82.058594 114.574219 81.921875 114.242188 C 81.78125 113.910156 81.714844 113.5625 81.710938 113.203125 Z M 81.710938 113.203125 " fill-opacity="1" fill-rule="nonzero"/></svg>