<svg xmlns="http://www.w3.org/2000/svg" xmlns:xlink="http://www.w3.org/1999/xlink" width="204" zoomAndPan="magnify" viewBox="0 0 153 153.000002" height="204" preserveAspectRatio="xMidYMid meet" version="1.0"><defs><clipPath id="7d9ac67375"><path d="M 21.335938 15.199219 L 131.613281 15.199219 L 131.613281 136.65625 L 21.335938 136.65625 Z M 21.335938 15.199219 " clip-rule="nonzero"/></clipPath></defs><g clip-path="url(#7d9ac67375)"><path fill="#8cc84b" d="M 71.386719 16.816406 C 74.414062 15.101562 78.277344 15.09375 81.230469 16.816406 L 126.457031 42.292969 C 129.285156 43.882812 131.175781 47.03125 131.152344 50.289062 L 131.152344 101.371094 C 131.171875 104.765625 129.089844 107.984375 126.109375 109.542969 L 81.125 134.902344 C 80.355469 135.324219 79.542969 135.640625 78.691406 135.851562 C 77.835938 136.058594 76.96875 136.148438 76.089844 136.125 C 75.210938 136.101562 74.351562 135.960938 73.511719 135.707031 C 72.671875 135.453125 71.878906 135.089844 71.132812 134.625 L 57.632812 126.832031 C 56.714844 126.28125 55.679688 125.847656 55.027344 124.957031 C 55.605469 124.1875 56.625 124.085938 57.460938 123.746094 C 59.335938 123.148438 61.058594 122.234375 62.785156 121.265625 C 63.21875 120.960938 63.753906 121.074219 64.167969 121.347656 L 75.679688 128 C 76.5 128.472656 77.335938 127.847656 78.039062 127.449219 L 122.207031 102.542969 C 122.753906 102.277344 123.054688 101.703125 123.011719 101.105469 L 123.011719 50.515625 C 123.070312 49.835938 122.679688 49.214844 122.0625 48.941406 L 77.195312 23.691406 C 76.929688 23.507812 76.636719 23.417969 76.316406 23.414062 C 75.992188 23.414062 75.699219 23.503906 75.433594 23.6875 L 30.628906 48.988281 C 30.023438 49.265625 29.605469 49.878906 29.683594 50.558594 L 29.683594 101.148438 C 29.628906 101.746094 29.949219 102.308594 30.496094 102.566406 L 42.46875 109.320312 C 44.71875 110.53125 47.480469 111.210938 49.953125 110.324219 C 50.496094 110.117188 50.996094 109.839844 51.453125 109.480469 C 51.90625 109.125 52.300781 108.707031 52.628906 108.230469 C 52.957031 107.753906 53.207031 107.242188 53.378906 106.6875 C 53.550781 106.136719 53.632812 105.570312 53.632812 104.992188 L 53.644531 54.707031 C 53.589844 53.960938 54.292969 53.34375 55.015625 53.417969 L 60.773438 53.417969 C 61.53125 53.402344 62.125 54.203125 62.023438 54.953125 L 62.011719 105.554688 C 62.015625 110.050781 60.167969 114.9375 56.003906 117.144531 C 50.878906 119.792969 44.539062 119.238281 39.472656 116.691406 L 26.601562 109.578125 C 23.570312 108.0625 21.539062 104.792969 21.554688 101.402344 L 21.554688 50.324219 C 21.5625 49.496094 21.679688 48.679688 21.902344 47.878906 C 22.128906 47.082031 22.453125 46.324219 22.878906 45.613281 C 23.304688 44.902344 23.820312 44.257812 24.417969 43.683594 C 25.015625 43.109375 25.679688 42.621094 26.410156 42.222656 Z M 84.425781 52.222656 C 90.964844 51.84375 97.96875 51.972656 103.851562 55.195312 C 108.40625 57.660156 110.929688 62.835938 111.015625 67.898438 C 110.886719 68.582031 110.175781 68.960938 109.523438 68.910156 C 107.628906 68.90625 105.730469 68.9375 103.828125 68.898438 C 103.023438 68.929688 102.554688 68.1875 102.453125 67.476562 C 101.910156 65.054688 100.585938 62.660156 98.308594 61.488281 C 94.808594 59.738281 90.75 59.824219 86.933594 59.863281 C 84.144531 60.015625 81.152344 60.253906 78.792969 61.886719 C 76.976562 63.128906 76.429688 65.671875 77.078125 67.644531 C 77.683594 69.09375 79.359375 69.5625 80.726562 69.992188 C 88.609375 72.050781 96.960938 71.882812 104.695312 74.558594 C 107.894531 75.664062 111.027344 77.8125 112.125 81.160156 C 113.554688 85.648438 112.929688 91.015625 109.738281 94.617188 C 107.148438 97.582031 103.378906 99.15625 99.609375 100.074219 C 94.601562 101.1875 89.40625 101.214844 84.320312 100.714844 C 79.539062 100.171875 74.5625 98.914062 70.871094 95.660156 C 67.714844 92.921875 66.175781 88.652344 66.328125 84.535156 C 66.367188 83.839844 67.058594 83.355469 67.726562 83.414062 L 73.40625 83.414062 C 74.171875 83.359375 74.734375 84.019531 74.769531 84.738281 C 75.125 87.007812 75.992188 89.464844 78.003906 90.792969 C 81.890625 93.296875 86.761719 93.121094 91.207031 93.195312 C 94.890625 93.03125 99.027344 92.980469 102.039062 90.546875 C 103.628906 89.15625 104.09375 86.835938 103.664062 84.839844 C 103.199219 83.152344 101.394531 82.367188 99.878906 81.8125 C 92.097656 79.351562 83.652344 80.246094 75.949219 77.460938 C 72.820312 76.355469 69.796875 74.269531 68.59375 71.054688 C 66.917969 66.515625 67.6875 60.886719 71.21875 57.40625 C 74.628906 53.945312 79.625 52.609375 84.359375 52.132812 Z M 84.425781 52.222656 " fill-opacity="1" fill-rule="nonzero"/></g></svg>