<svg xmlns="http://www.w3.org/2000/svg" xmlns:xlink="http://www.w3.org/1999/xlink" width="204" zoomAndPan="magnify" viewBox="0 0 153 153.000002" height="204" preserveAspectRatio="xMidYMid meet" version="1.0"><defs><clipPath id="4dca418ad9"><path d="M 15.699219 15.199219 L 137.152344 15.199219 L 137.152344 136.65625 L 15.699219 136.65625 Z M 15.699219 15.199219 " clip-rule="nonzero"/></clipPath></defs><g clip-path="url(#4dca418ad9)"><path fill="#eee400" d="M 108.78125 127.136719 C 98.1875 127.136719 91.332031 122.082031 87.992188 115.476562 L 97.285156 110.09375 C 99.734375 114.089844 102.90625 117.023438 108.535156 117.023438 C 113.261719 117.023438 116.277344 114.660156 116.277344 111.394531 C 116.277344 106.492188 109.730469 104.570312 105.109375 102.59375 C 96.875 99.089844 91.410156 94.683594 91.410156 85.386719 C 91.410156 76.828125 97.933594 70.308594 108.128906 70.308594 C 115.382812 70.308594 120.605469 72.835938 124.351562 79.4375 L 115.464844 85.144531 C 113.507812 81.640625 111.390625 80.253906 108.128906 80.253906 C 104.78125 80.253906 102.664062 82.375 102.664062 85.144531 C 102.664062 88.570312 104.78125 89.953125 109.675781 92.074219 C 119.929688 96.46875 127.691406 99.925781 127.691406 111.234375 C 127.695312 121.511719 119.628906 127.136719 108.78125 127.136719 Z M 82.5 109.933594 C 82.5 121.753906 75.214844 128.003906 65.105469 128.003906 C 55.972656 128.003906 50.5 124.511719 47.808594 118.4375 L 47.652344 118.4375 L 56.9375 111.949219 C 58.730469 115.121094 60.34375 117.378906 64.253906 117.378906 C 68.007812 117.378906 70.351562 115.476562 70.351562 109.773438 L 70.351562 69.855469 L 82.5 69.855469 Z M 15.699219 136.65625 L 137.152344 136.65625 L 137.152344 15.199219 L 15.699219 15.199219 Z M 15.699219 136.65625 " fill-opacity="1" fill-rule="evenodd"/></g></svg>