<svg xmlns="http://www.w3.org/2000/svg" xmlns:xlink="http://www.w3.org/1999/xlink" width="204" zoomAndPan="magnify" viewBox="0 0 153 153.000002" height="204" preserveAspectRatio="xMidYMid meet" version="1.0"><defs><clipPath id="db58db6061"><path d="M 11.566406 20 L 141.21875 20 L 141.21875 131 L 11.566406 131 Z M 11.566406 20 " clip-rule="nonzero"/></clipPath><clipPath id="cc13bf016e"><path d="M 11.566406 15.199219 L 141.21875 15.199219 L 141.21875 136.65625 L 11.566406 136.65625 Z M 11.566406 15.199219 " clip-rule="nonzero"/></clipPath></defs><path fill="#00d8ff" d="M 87.96875 75.820312 C 87.96875 76.582031 87.894531 77.335938 87.746094 78.082031 C 87.597656 78.828125 87.378906 79.550781 87.089844 80.253906 C 86.796875 80.957031 86.441406 81.625 86.019531 82.257812 C 85.597656 82.890625 85.117188 83.476562 84.578125 84.011719 C 84.042969 84.550781 83.457031 85.03125 82.824219 85.453125 C 82.191406 85.875 81.523438 86.230469 80.824219 86.523438 C 80.121094 86.816406 79.394531 87.035156 78.652344 87.183594 C 77.90625 87.332031 77.152344 87.40625 76.390625 87.40625 C 75.632812 87.40625 74.878906 87.332031 74.132812 87.183594 C 73.386719 87.035156 72.664062 86.816406 71.960938 86.523438 C 71.257812 86.230469 70.59375 85.875 69.960938 85.453125 C 69.328125 85.03125 68.742188 84.550781 68.207031 84.011719 C 67.667969 83.476562 67.1875 82.890625 66.765625 82.257812 C 66.34375 81.625 65.988281 80.957031 65.695312 80.253906 C 65.40625 79.550781 65.183594 78.828125 65.035156 78.082031 C 64.890625 77.335938 64.816406 76.582031 64.816406 75.820312 C 64.816406 75.0625 64.890625 74.308594 65.035156 73.5625 C 65.183594 72.816406 65.40625 72.09375 65.695312 71.390625 C 65.988281 70.6875 66.34375 70.019531 66.765625 69.386719 C 67.1875 68.753906 67.667969 68.167969 68.207031 67.632812 C 68.742188 67.09375 69.328125 66.613281 69.960938 66.191406 C 70.59375 65.769531 71.257812 65.410156 71.960938 65.121094 C 72.664062 64.828125 73.386719 64.609375 74.132812 64.460938 C 74.878906 64.3125 75.632812 64.238281 76.390625 64.238281 C 77.152344 64.238281 77.90625 64.3125 78.652344 64.460938 C 79.394531 64.609375 80.121094 64.828125 80.824219 65.121094 C 81.523438 65.410156 82.191406 65.769531 82.824219 66.191406 C 83.457031 66.613281 84.042969 67.09375 84.578125 67.632812 C 85.117188 68.167969 85.597656 68.753906 86.019531 69.386719 C 86.441406 70.019531 86.796875 70.6875 87.089844 71.390625 C 87.378906 72.09375 87.597656 72.816406 87.746094 73.5625 C 87.894531 74.308594 87.96875 75.0625 87.96875 75.820312 Z M 87.96875 75.820312 " fill-opacity="1" fill-rule="nonzero"/><g clip-path="url(#db58db6061)"><path stroke-linecap="butt" transform="matrix(0.230782, 0, 0, 0.230889, 14.189597, 20.955985)" fill="none" stroke-linejoin="miter" d="M 269.52332 135.6216 C 336.889496 135.6216 399.465565 145.298866 446.638814 161.540431 C 503.476909 181.114901 538.42946 210.772676 538.42946 237.622014 C 538.42946 265.621796 501.39499 297.140584 440.359203 317.357949 C 394.201524 332.65209 333.470409 340.637526 269.52332 340.637526 C 203.985171 340.637526 141.899962 333.14272 95.234498 317.188766 C 36.179074 297.005237 0.61718 265.08041 0.61718 237.622014 C 0.61718 210.992614 33.995597 181.554777 90.038162 162.014144 C 137.397599 145.501886 201.51395 135.6216 269.52332 135.6216 Z M 269.52332 135.6216 " stroke="#00d8ff" stroke-width="24" stroke-opacity="1" stroke-miterlimit="4"/></g><g clip-path="url(#cc13bf016e)"><path stroke-linecap="butt" transform="matrix(0.230782, 0, 0, 0.230889, 14.189597, 20.955985)" fill="none" stroke-linejoin="miter" d="M 180.745533 186.917877 C 214.394769 128.56667 254.018944 79.199079 291.662757 46.445255 C 337.007979 6.974868 380.152799 -8.471537 403.426289 4.944672 C 427.681498 18.919186 436.466183 66.747212 423.500733 129.734033 C 413.700478 177.359039 390.257725 233.950744 358.318033 289.341249 C 325.565885 346.119054 288.074408 396.163377 250.93838 428.612671 C 203.968245 469.673379 158.538392 484.544562 134.757116 470.823823 C 111.68674 457.526041 102.851276 413.893753 113.920995 355.593301 C 123.281169 306.327219 146.757774 245.844307 180.728607 186.934796 Z M 180.745533 186.917877 " stroke="#00d8ff" stroke-width="24" stroke-opacity="1" stroke-miterlimit="4"/><path stroke-linecap="butt" transform="matrix(0.230782, 0, 0, 0.230889, 14.189597, 20.955985)" fill="none" stroke-linejoin="miter" d="M 180.813238 289.476595 C 147.079371 231.193061 124.093626 172.198959 114.513411 123.237407 C 102.96976 64.226386 111.128176 19.122205 134.367814 5.655241 C 158.606096 -8.370028 204.425252 7.905374 252.512514 50.607157 C 288.869938 82.887268 326.20908 131.442781 358.233403 186.765613 C 391.070182 243.509582 415.697766 300.981037 425.277981 349.350449 C 437.380196 410.560848 427.579941 457.323022 403.815591 471.094516 C 380.762141 484.443052 338.565187 470.299356 293.575415 431.590292 C 255.559226 398.887223 214.902554 348.335351 180.813238 289.476595 Z M 180.813238 289.476595 " stroke="#00d8ff" stroke-width="24" stroke-opacity="1" stroke-miterlimit="4"/></g></svg>