<svg xmlns="http://www.w3.org/2000/svg" xmlns:xlink="http://www.w3.org/1999/xlink" width="204" zoomAndPan="magnify" viewBox="0 0 153 153.000002" height="204" preserveAspectRatio="xMidYMid meet" version="1.0"><defs><clipPath id="45affa141c"><path d="M 61 15.199219 L 104 15.199219 L 104 86 L 61 86 Z M 61 15.199219 " clip-rule="nonzero"/></clipPath></defs><path fill="#4e7896" d="M 61.117188 108.230469 C 61.117188 108.230469 56.492188 111.042969 64.332031 111.847656 C 73.777344 113.050781 78.804688 112.851562 89.257812 110.84375 C 91.363281 112.132812 93.574219 113.203125 95.890625 114.058594 C 72.375 124.105469 42.621094 113.457031 61.113281 108.230469 Z M 58.109375 95.171875 C 58.109375 95.171875 53.082031 98.988281 60.921875 99.796875 C 71.171875 100.800781 79.210938 101 93.085938 98.1875 C 94.453125 99.578125 96.0625 100.582031 97.910156 101.203125 C 69.566406 109.640625 37.808594 102.007812 58.109375 95.171875 Z M 113.585938 118.070312 C 113.585938 118.070312 117 120.882812 109.765625 123.09375 C 96.296875 127.117188 53.285156 128.320312 41.226562 123.09375 C 37.003906 121.289062 45.042969 118.675781 47.621094 118.273438 C 50.234375 117.671875 51.644531 117.671875 51.644531 117.671875 C 47.019531 114.457031 20.890625 124.300781 38.378906 127.109375 C 86.421875 134.945312 126.019531 123.695312 113.554688 118.070312 Z M 63.292969 81.503906 C 63.292969 81.503906 41.382812 86.730469 55.453125 88.535156 C 61.484375 89.339844 73.339844 89.136719 84.394531 88.335938 C 93.441406 87.53125 102.492188 85.929688 102.492188 85.929688 C 102.492188 85.929688 99.273438 87.335938 97.0625 88.742188 C 74.753906 94.570312 31.9375 91.957031 44.199219 85.929688 C 54.652344 80.90625 63.296875 81.511719 63.296875 81.511719 Z M 102.492188 103.40625 C 125.003906 91.75 114.550781 80.503906 107.3125 81.90625 C 105.507812 82.308594 104.699219 82.710938 104.699219 82.710938 C 104.699219 82.710938 105.300781 81.507812 106.707031 81.105469 C 120.980469 76.082031 132.234375 96.175781 102.082031 104.007812 C 102.082031 104.007812 102.28125 103.808594 102.484375 103.40625 Z M 65.511719 135.148438 C 87.21875 136.554688 120.386719 134.34375 121.1875 124.09375 C 121.1875 124.09375 119.582031 128.117188 103.300781 131.125 C 84.804688 134.539062 61.890625 134.132812 48.425781 131.929688 C 48.425781 131.929688 51.238281 134.335938 65.511719 135.144531 Z M 65.511719 135.148438 " fill-opacity="1" fill-rule="nonzero"/><g clip-path="url(#45affa141c)"><path fill="#f58219" d="M 88.859375 15.203125 C 88.859375 15.203125 101.320312 27.863281 77 46.949219 C 57.503906 62.417969 72.578125 71.257812 77 81.304688 C 65.542969 71.058594 57.304688 62.015625 62.929688 53.582031 C 71.167969 41.121094 93.882812 35.128906 88.859375 15.203125 Z M 82.460938 72.867188 C 88.292969 79.496094 80.855469 85.523438 80.855469 85.523438 C 80.855469 85.523438 95.730469 77.890625 88.894531 68.445312 C 82.664062 59.40625 77.835938 54.984375 103.96875 39.917969 C 103.96875 39.917969 62.765625 50.164062 82.460938 72.867188 Z M 82.460938 72.867188 " fill-opacity="1" fill-rule="nonzero"/></g></svg>